<svg width="208" height="209" viewBox="0 0 208 209" fill="none" xmlns="http://www.w3.org/2000/svg">
<path d="M104 96C92.9583 96 84 104.958 84 116C84 127.042 92.9583 136 104 136C115.042 136 124 127.042 124 116C124 104.958 115.042 96 104 96Z" fill="#0A60E8"/>
<path d="M104 0C46.5855 0 0 46.8094 0 104.5C0 162.191 46.5855 209 104 209C161.415 209 208 162.191 208 104.5C208 46.8094 161.415 0 104 0ZM158.963 173.688L147.725 169.376C119.733 158.495 88.4715 158.495 60.4794 169.376L49.2417 173.688C44.7466 175.33 40.2515 171.019 41.8861 166.502L92.3536 27.7161C96.4401 16.6297 111.969 16.6297 115.851 27.7161L166.318 166.502C167.749 171.019 163.458 175.33 158.963 173.688Z" fill="#0A60E8"/>
</svg>
